<mxfile host="app.diagrams.net" modified="2023-10-26T10:17:05.122Z" agent="Mozilla/5.0 (X11; Linux x86_64) AppleWebKit/537.36 (KHTML, like Gecko) SamsungBrowser/22.0 Chrome/111.0.5563.116 Safari/537.36" version="22.0.8" etag="JoAjjEvhgjf8KLfDnAb2" type="github">
  <diagram name="Page-1" id="zBqm8ygghPVLinz1BmMf">
    <mxGraphModel>
      <root>
        <mxCell id="0" />
        <mxCell id="1" parent="0" />
      </root>
    </mxGraphModel>
  </diagram>
</mxfile>
